# xmcd
#
# Track frame offsets:
#	150
#	12385
#	24302
#	46275
#	59140
#	68275
#	81055
#	93497
#	112132
#	125115
#	138265
#	150807
#	165340
#	181427
#	194762
#	207477
#	219777
#	241697
#	250915
#	262665
#	276422
#	288200
#	300517
#	314402
#	327527
#
# Disc length: 4514
#
# Revision: 2
# Processed by: cddbd v1.5.1PL0 Copyright (c) Steve Scherf et al.
# Submitted via: CDex 1.50Beta7
# Normalized: r0:TSWAP
#
DISCID=6011a019
DTITLE=Blue Claptone - Original Blues Classics Covered By Clapton
DYEAR=2000
DGENRE=Blues
TTITLE0=Billy Boy Arnold - I Wish You Would
TTITLE1=Otis Rush - All Your Love
TTITLE2=Freddie King - Hideaway
TTITLE3=Robert Lockwood Jr. - Ramblin' On My Mind
TTITLE4=Memphis Slim - Steppin' Out
TTITLE5=Baby Face Leroy With Muddy Waters - Rollin' And Tumblin' (PT.1)
TTITLE6=Homesick James - Crossroad
TTITLE7=Doctor Ross - Cat Squirrel
TTITLE8=Skip James - I'm So Glad
TTITLE9=Blind Joe Reynolds - Outside Woman Blues
TTITLE10=Albert King - Born Under A Bad Sign
TTITLE11=Junior Wells - Hey Lawdy Mama
TTITLE12=Freddie King - Have You Ever Loved A Woman
TTITLE13=Robert Lockwood Jr. - Steady Rollin' Man
TTITLE14=Elmore James - The Sky Is Crying
TTITLE15=Otis Rush - Double Trouble
TTITLE16=Albert King - Crosscut Saw
TTITLE17=Otis Spann - Worried Life Blues
TTITLE18=Snooks Eaglin - Alberta
TTITLE19=Jesse Fuller - San Francisco Bay Blues
TTITLE20=Robert Lockwood Jr. - Walkin' Blues
TTITLE21=Elmore James - Blues Before Sunrise
TTITLE22=Elmore James - It Hurts Me Too
TTITLE23=Muddy Waters - Hoochie Coochie Man
TTITLE24=B.B.King - Days Of Old
EXTD=YEAR: 2000
EXTT0=
EXTT1=
EXTT2=
EXTT3=
EXTT4=
EXTT5=
EXTT6=
EXTT7=
EXTT8=
EXTT9=
EXTT10=
EXTT11=
EXTT12=
EXTT13=
EXTT14=
EXTT15=
EXTT16=
EXTT17=
EXTT18=
EXTT19=
EXTT20=
EXTT21=
EXTT22=
EXTT23=
EXTT24=
PLAYORDER=
